<svg xmlns="http://www.w3.org/2000/svg" viewBox="0 0 764.96 126.99"><title>la_machine</title><path fill="#888888" d="M16.69,3.37q3.78,0,6.48,3.62a13.77,13.77,0,0,1,2.7,8.6v99.1a13.74,13.74,0,0,1-2.7,8.59q-2.7,3.63-6.48,3.63H9.19a7.9,7.9,0,0,1-6.49-3.63A13.74,13.74,0,0,1,0,114.69V15.59A13.77,13.77,0,0,1,2.7,7,7.91,7.91,0,0,1,9.19,3.37Z"/><path fill="#888888" d="M64.63,92.69A10,10,0,0,0,62.44,99a10.1,10.1,0,0,0,2.11,6.58,7.66,7.66,0,0,0,6.24,2.53,13,13,0,0,0,7.92-2.79,15.09,15.09,0,0,0,5.22-6.74,28.77,28.77,0,0,0,1.52-10.28V65.73q0-6.24-1.94-8.76c-1.35-1.69-3.62-2.53-6.83-2.53q-6.23,0-9.43,2.69a8.24,8.24,0,0,0-1.86,2.36q-3.12,5.4-8.17,4.64l-4.81-.68a8,8,0,0,1-5-2.86,12.9,12.9,0,0,1-2.87-6.32Q43,46,48.37,41.29c.56-.5,1.21-1,1.94-1.6a26.31,26.31,0,0,1,9.69-4A62.81,62.81,0,0,1,73.31,34.3q11.55,0,18.46,1.68a21.46,21.46,0,0,1,11.63,7.17q3.28,3.7,5.14,10.61a48.82,48.82,0,0,1,1.94,13.15v39.18c0,2.14,0,4,.16,5.73A13.77,13.77,0,0,1,108.2,121q-2.7,4-6.66,4H96a7.67,7.67,0,0,1-5.9-2.87A13.49,13.49,0,0,1,87,114.77a2.08,2.08,0,0,0-.08-.67,34.51,34.51,0,0,1-9.94,9.18A32.42,32.42,0,0,1,61.18,127q-12,0-18.2-7.41-6.15-7.24-6.15-18.12,0-10.11,4.46-16.6t16.43-9.69Q64.89,73.31,69.61,72a7.14,7.14,0,0,1,6.65,1.18,7.23,7.23,0,0,1,3,6.07v1a7,7,0,0,1-5.06,7.17Q66.65,90.08,64.63,92.69Z"/><path fill="#888888" d="M184,36.32q3.79,0,6.57,3.62a14.27,14.27,0,0,1,2.7,8.77v.84q5.31-8.34,10.62-11.8a23.11,23.11,0,0,1,13-3.54q8.16,0,12.89,3.88t7.75,11.46q6.15-8.92,11.21-12.14a23.31,23.31,0,0,1,12.55-3.2q11,0,17.11,8.68T284.57,70v44.49a14.28,14.28,0,0,1-2.69,8.76,8.21,8.21,0,0,1-6.66,3.63h-7.5a8,8,0,0,1-6.57-3.63,13.9,13.9,0,0,1-2.78-8.76V75.25q0-6.15-1.77-9.1Q254,61.43,250,61.43q-4.54,0-7.41,4.47t-2.78,14.24v34.38a14,14,0,0,1-2.78,8.76,8,8,0,0,1-6.58,3.63h-7.58q-3.79,0-6.57-3.63a14.22,14.22,0,0,1-2.7-8.76V76.94a42.11,42.11,0,0,0-.51-8.09,11.83,11.83,0,0,0-2.86-5.48,6.75,6.75,0,0,0-4.89-2.11q-4.47,0-7.33,4.55t-2.87,14.83v33.88a13.9,13.9,0,0,1-2.78,8.76,8,8,0,0,1-6.57,3.63h-7.5a8.21,8.21,0,0,1-6.66-3.63,14.28,14.28,0,0,1-2.69-8.76V48.71a14.33,14.33,0,0,1,2.69-8.77,8.23,8.23,0,0,1,6.66-3.62Z"/><path fill="#888888" d="M323.34,92.69A9.92,9.92,0,0,0,321.15,99a10.16,10.16,0,0,0,2.1,6.58,7.68,7.68,0,0,0,6.24,2.53,12.93,12.93,0,0,0,7.92-2.79,15.09,15.09,0,0,0,5.22-6.74,28.77,28.77,0,0,0,1.52-10.28V65.73q0-6.24-1.94-8.76t-6.82-2.53q-6.24,0-9.44,2.69a8.42,8.42,0,0,0-1.86,2.36q-3.1,5.4-8.17,4.64l-4.8-.68a8,8,0,0,1-5.06-2.86,12.89,12.89,0,0,1-2.86-6.32q-1.53-8.27,3.87-13c.56-.5,1.21-1,1.94-1.6a26.31,26.31,0,0,1,9.69-4A62.9,62.9,0,0,1,332,34.3q11.53,0,18.45,1.68a21.46,21.46,0,0,1,11.63,7.17q3.28,3.7,5.14,10.61a48.82,48.82,0,0,1,1.94,13.15v39.18c0,2.14.05,4,.17,5.73A13.77,13.77,0,0,1,366.9,121c-1.8,2.64-4,4-6.65,4h-5.57a7.65,7.65,0,0,1-5.89-2.87,13.34,13.34,0,0,1-3.12-7.33,2,2,0,0,0-.09-.67,34.38,34.38,0,0,1-9.94,9.18A32.42,32.42,0,0,1,319.88,127q-12,0-18.2-7.41-6.15-7.24-6.15-18.12,0-10.11,4.46-16.6t16.44-9.69q7.15-1.86,11.88-3.21A7.53,7.53,0,0,1,338,79.21v1a7,7,0,0,1-5.06,7.17C327.89,89.18,324.68,91,323.34,92.69Z"/><path fill="#888888" d="M449.06,91.26q5.49.84,7.42,7.59a14.2,14.2,0,0,1-1.52,12.3,33.29,33.29,0,0,1-11.37,11q-7.17,4.05-18.12,4-10.53,0-17.61-2.61a29,29,0,0,1-12.14-8.51,43.22,43.22,0,0,1-8-13.82q-2.87-7.83-2.87-21,0-13.74,3.54-22.75a39.66,39.66,0,0,1,7-12,32.92,32.92,0,0,1,9.18-7.92q7.41-4.12,19-4.13,16.35,0,24.95,7.84a38,38,0,0,1,4,4.38q4,5.31,2.19,12.47t-7.41,8.17l-4.47.76q-5.22.93-8.42-4.72a14.18,14.18,0,0,0-2.11-2.69,11,11,0,0,0-8-2.87q-6.31,0-10.19,6t-4,18.37q0,10.88,3.87,16.61t10,5.64a11.46,11.46,0,0,0,8.42-3.45,14.62,14.62,0,0,0,3-4.13q3-6.24,8.6-5.4Z"/><path fill="#888888" d="M489.43,3.37q3.79,0,6.49,3.62a13.83,13.83,0,0,1,2.69,8.6V48.88q5.24-7.26,10.45-10.37a23.29,23.29,0,0,1,12.31-3.12,19.23,19.23,0,0,1,16.51,8.51Q544,52.42,544,70v44.66a13.74,13.74,0,0,1-2.7,8.59q-2.7,3.63-6.49,3.63h-7.5a7.89,7.89,0,0,1-6.48-3.63,13.74,13.74,0,0,1-2.7-8.59v-37q0-8.43-2.36-11.89a7.46,7.46,0,0,0-6.57-3.54q-4.72,0-7.59,4.72t-2.95,16.94v30.76a13.8,13.8,0,0,1-2.69,8.59q-2.7,3.63-6.49,3.63H482q-3.79,0-6.49-3.63a13.8,13.8,0,0,1-2.69-8.59V15.59A13.83,13.83,0,0,1,475.52,7q2.7-3.61,6.49-3.62Z"/><path fill="#888888" d="M577.74,0a6.75,6.75,0,0,1,5.56,3,12,12,0,0,1,2.36,7.42v.93a14.42,14.42,0,0,1-2.78,8.93,8.2,8.2,0,0,1-6.66,3.62h-7.66a8.2,8.2,0,0,1-6.66-3.62,14.42,14.42,0,0,1-2.78-8.93v-.93A12.29,12.29,0,0,1,561.39,3,6.91,6.91,0,0,1,567,0Zm-1.52,35q3.88,0,6.66,3.71a14,14,0,0,1,2.78,8.85v66.82a14.28,14.28,0,0,1-2.78,8.85q-2.77,3.7-6.66,3.71h-7.66q-3.88,0-6.66-3.71a14.28,14.28,0,0,1-2.78-8.85V47.53a14,14,0,0,1,2.78-8.85q2.77-3.7,6.66-3.71Z"/><path fill="#888888" d="M615.83,36.32a8.23,8.23,0,0,1,6.66,3.62,14.33,14.33,0,0,1,2.69,8.77V51q5.4-8.92,11-12.89a23.59,23.59,0,0,1,13.65-3.88,19.69,19.69,0,0,1,16.94,8.6Q673,51.41,673,69.27v45.25a14.28,14.28,0,0,1-2.69,8.76,8.21,8.21,0,0,1-6.66,3.63H656a8,8,0,0,1-6.58-3.63,14,14,0,0,1-2.78-8.76V77.11q0-8.61-2.36-12.14a7.54,7.54,0,0,0-6.65-3.54q-4.81,0-7.67,4.8-3,4.81-3,17.2v31.09a14.28,14.28,0,0,1-2.69,8.76,8,8,0,0,1-6.58,3.63h-7.5a8.18,8.18,0,0,1-6.65-3.63,14.22,14.22,0,0,1-2.7-8.76V48.71a14.27,14.27,0,0,1,2.7-8.77,8.19,8.19,0,0,1,6.65-3.62Z"/><path fill="#888888" d="M739.37,72q-.86-9.93-4-14.15a10.08,10.08,0,0,0-8.51-4.3c-4,0-7.28,2.16-9.69,6.49q-2.36,4.05-3,12V88.23h-.08q.67,8.08,3.37,12.13,3.62,5.82,9.6,5.82a11.79,11.79,0,0,0,7.17-2.53,10.7,10.7,0,0,0,1.93-1.94q3-3.61,7-3.12l1.26.17a8.25,8.25,0,0,1,5.48,3.29,13.86,13.86,0,0,1,2.78,7.16,15.3,15.3,0,0,1-1.18,7.84,10,10,0,0,1-4.63,5.14q-7.75,4-20.31,4-13.23,0-20.9-5T693.1,105.33q-5-10.78-5-25.36,0-20.81,10-33.71T725.8,33.45q14.24,0,22.58,5.73t12.56,16.69a64.58,64.58,0,0,1,4,19,14.3,14.3,0,0,1-2.28,9.35q-2.68,4-6.74,4h-28a7.63,7.63,0,0,1-7.59-7.59V79.55A7.5,7.5,0,0,1,727.91,72Z"/></svg>